<svg width="158" height="127" viewBox="0 0 158 127" fill="none"
  xmlns="http://www.w3.org/2000/svg">
  <g opacity="0.3">
    <path d="M79.0701 0.0103171C92.0132 0.0103171 104.956 0.0103171 117.899 0.0103171C120.67 0.0103171 120.892 0.268238 121.34 2.96609C122.53 10.1982 126.784 15.1606 133.109 18.5084C139.403 21.8407 146.273 22.7486 153.257 23.0839C153.706 23.1046 154.159 23.0994 154.607 23.1046C157.192 23.151 157.646 23.4192 157.697 25.9314C157.847 33.1325 158.192 40.3543 157.862 47.54C157.162 62.747 153.979 77.4794 148.189 91.598C137.569 117.488 119.656 136.873 95.3559 150.476C90.6535 153.107 85.7193 155.341 80.8264 157.621C79.956 158.028 78.622 158.147 77.767 157.781C57.4175 149.12 39.705 136.863 25.9893 119.283C13.8394 103.71 6.41241 86.0218 2.65256 66.7241C0.0567262 53.3793 -0.494374 39.9107 0.396658 26.3647C0.587225 23.4863 0.937458 23.1665 3.91958 23.0891C10.3886 22.9292 16.7803 22.2018 22.7806 19.602C30.5372 16.2439 35.8731 10.8378 36.9547 2.05305C37.1762 0.252762 38.3814 0 39.8647 0C47.9767 0.0154753 56.0887 0.00515755 64.2058 0.00515755C69.1503 0.010316 74.1102 0.0103171 79.0701 0.0103171ZM154.169 27.6646C148.236 26.5762 142.879 26.0345 137.796 24.5592C128.19 21.7737 120.938 16.0736 118.069 6.01472C117.601 4.36918 116.947 3.95651 115.34 3.96167C95.1859 4.01325 75.027 3.99261 54.8732 3.99261C50.6858 3.99261 46.4985 4.0442 42.3163 3.96167C41.039 3.93587 40.5652 4.36402 40.2407 5.57625C39.7772 7.29916 39.1539 9.02207 38.3402 10.6057C34.2558 18.56 27.3182 22.8673 18.9744 24.9822C14.272 26.1738 9.38423 26.6535 4.38312 27.4841C4.43978 27.3448 4.32647 27.515 4.30587 27.6955C4.24921 28.2733 4.21831 28.851 4.19255 29.4288C3.72386 39.2865 3.99169 49.1133 5.34111 58.904C7.9318 77.7167 13.9733 95.2657 24.7223 111.035C38.1393 130.725 56.5368 144.24 78.1636 153.659C78.7559 153.917 79.6984 153.85 80.2959 153.561C84.9777 151.291 89.7367 149.13 94.2537 146.561C116.411 133.974 133.202 116.395 143.456 92.898C151.249 75.0344 154.36 56.2577 154.174 36.8569C154.143 33.6432 154.169 30.4347 154.169 27.6646Z" fill="white"/>
    <path d="M60.8787 91.4895C54.1419 91.4895 47.709 91.4946 41.276 91.4895C38.5875 91.4895 38.1342 91.0407 38.1342 88.3583C38.1291 78.2581 38.1291 68.1528 38.1342 58.0526C38.1342 55.4063 38.6235 54.9163 41.2863 54.9111C47.0136 54.9008 52.741 54.906 58.4734 54.906C59.1739 54.906 59.8744 54.906 60.8787 54.906C60.8787 54.0806 60.8787 53.3997 60.8787 52.724C60.8787 46.8692 60.8684 41.0144 60.8839 35.1595C60.889 32.7041 61.3783 32.1986 63.8145 32.1986C74.0485 32.1831 84.2825 32.1831 94.5164 32.1986C96.8548 32.2038 97.3749 32.7299 97.3801 35.0357C97.3955 40.8906 97.3853 46.7454 97.3853 52.6002C97.3853 53.2914 97.3853 53.9826 97.3853 54.906C98.2917 54.906 98.9767 54.906 99.6669 54.906C105.523 54.906 111.379 54.8957 117.24 54.9111C119.543 54.9163 120.125 55.4889 120.13 57.7379C120.14 68.0341 120.14 78.3304 120.13 88.6266C120.13 90.9375 119.584 91.4843 117.302 91.4895C111.446 91.4998 105.59 91.4946 99.7287 91.4946C99.0334 91.4946 98.3381 91.4946 97.3853 91.4946C97.3853 92.3406 97.3853 93.0267 97.3853 93.7128C97.3853 99.6346 97.3955 105.551 97.3801 111.473C97.3749 113.65 96.7929 114.243 94.6401 114.243C84.2773 114.259 73.9146 114.259 63.5518 114.243C61.5174 114.238 60.8993 113.619 60.8942 111.592C60.8736 105.67 60.8839 99.7533 60.8839 93.8314C60.8787 93.1299 60.8787 92.4335 60.8787 91.4895ZM93.4451 110.204C93.4451 103.529 93.44 97.0399 93.4503 90.5455C93.4554 88.1004 93.9653 87.5794 96.3706 87.5742C101.264 87.5639 106.151 87.5691 111.044 87.5691C112.703 87.5691 114.356 87.5691 116.107 87.5691C116.107 77.9332 116.107 68.5139 116.107 58.8883C115.309 58.8883 114.619 58.8883 113.923 58.8883C108.196 58.8883 102.469 58.8934 96.7414 58.8831C93.9241 58.878 93.4503 58.4137 93.4503 55.6694C93.4451 49.8765 93.4503 44.0888 93.4503 38.2959C93.4503 37.615 93.4503 36.9392 93.4503 36.2686C83.7777 36.2686 74.4039 36.2686 64.824 36.2686C64.824 37.0578 64.824 37.7439 64.824 38.4351C64.824 44.2281 64.8291 50.0158 64.8188 55.8087C64.8137 58.3415 64.2986 58.878 61.7749 58.8831C55.9188 58.8986 50.0627 58.8831 44.2066 58.8934C43.5319 58.8934 42.8521 58.9657 42.2134 58.9966C42.2134 68.6222 42.2134 78.0363 42.2134 87.5691C48.8627 87.5691 55.3574 87.5639 61.847 87.5742C64.2935 87.5794 64.8137 88.0849 64.8188 90.4939C64.8291 96.2197 64.824 101.946 64.824 107.671C64.824 108.486 64.824 109.296 64.824 110.204C74.4245 110.204 83.7983 110.204 93.4451 110.204Z" fill="white"/>
  </g>
</svg>
